<svg width="48" height="46" viewBox="0 0 48 46" fill="none" xmlns="http://www.w3.org/2000/svg">
<path d="M33.4165 5.51929H27.2773V4.26723C27.2762 3.76045 27.0743 3.27476 26.7158 2.91656C26.3573 2.55837 25.8714 2.35688 25.3647 2.35623H22.0683C21.5613 2.35688 21.0752 2.55859 20.7166 2.91714C20.3581 3.27569 20.1564 3.7618 20.1557 4.26886V5.51929H13.9165C13.4095 5.51994 12.9234 5.72165 12.5648 6.0802C12.2063 6.43875 12.0046 6.92486 12.0039 7.43192V21.7319C12.0048 22.2388 12.2066 22.7247 12.5651 23.0831C12.9236 23.4415 13.4096 23.6431 13.9165 23.6437H33.4165C33.9236 23.6431 34.4097 23.4414 34.7682 23.0828C35.1268 22.7243 35.3285 22.2382 35.3292 21.7311V7.43192C35.3285 6.92486 35.1268 6.43875 34.7682 6.0802C34.4097 5.72165 33.9236 5.51994 33.4165 5.51929ZM15.8868 23.0693H13.9165C13.5621 23.0689 13.2223 22.9279 12.9716 22.6774C12.7209 22.4269 12.5798 22.0872 12.5792 21.7327V7.43192C12.5794 7.07722 12.7203 6.73709 12.9711 6.4862C13.2218 6.23531 13.5618 6.09416 13.9165 6.09373H15.8868V23.0693ZM20.7318 4.26723C20.7322 3.91289 20.8732 3.57318 21.1237 3.32261C21.3743 3.07205 21.714 2.9311 22.0683 2.93067H25.3647C25.719 2.9311 26.0587 3.07205 26.3093 3.32261C26.5598 3.57318 26.7008 3.91289 26.7012 4.26723V5.51929H20.7318V4.26723ZM30.8702 23.0693H16.4629V6.09373H30.8702V13.455L29.1964 12.6644C29.1273 12.6319 29.0482 12.6281 28.9763 12.6538C28.9044 12.6795 28.8456 12.7327 28.8129 12.8017L26.7297 17.2128C26.7134 17.2469 26.704 17.284 26.702 17.3218C26.7001 17.3595 26.7056 17.3973 26.7183 17.433C26.7446 17.5043 26.7976 17.5626 26.8662 17.5955L30.3753 19.2562C30.4444 19.2888 30.5236 19.2926 30.5955 19.2668C30.6674 19.2411 30.7261 19.1879 30.7588 19.1189L30.8702 18.8825V23.0693ZM30.3607 18.6062L27.3732 17.1949L29.2102 13.3047L32.1978 14.7192L30.3607 18.6062ZM34.7539 21.7295C34.7541 22.0845 34.6134 22.425 34.3626 22.6762C34.1118 22.9275 33.7715 23.0689 33.4165 23.0693H31.4462V17.7417C31.4445 17.7222 31.4407 17.7028 31.4348 17.684L32.8421 14.7062C32.8745 14.6372 32.8786 14.5581 32.8535 14.486C32.8266 14.4148 32.7734 14.3566 32.7048 14.3235L31.4462 13.7312V6.09373H33.4165C33.771 6.09416 34.1107 6.23509 34.3614 6.48563C34.6121 6.73616 34.7533 7.07587 34.7539 7.43029V21.7295Z" fill="#FFECEE"/>
<path d="M28.5667 10.9988C28.5667 9.98888 27.3732 9.19751 25.8497 9.19751C24.3263 9.19751 23.1311 9.98888 23.1311 10.9988C23.1311 12.0088 24.3255 12.7985 25.8497 12.7985C27.374 12.7985 28.5667 12.0079 28.5667 10.9988ZM25.8497 12.2224C24.6879 12.2224 23.7072 11.6626 23.7072 10.9988C23.7072 10.335 24.6879 9.77357 25.8497 9.77357C27.0116 9.77357 27.9907 10.335 27.9907 10.9988C27.9907 11.6626 27.01 12.2224 25.8497 12.2224Z" fill="#FFECEE"/>
<path d="M22.7395 14.0465L19.327 12.4329C19.258 12.4006 19.179 12.3969 19.1074 12.4226C19.0357 12.4484 18.977 12.5014 18.9443 12.5702L17.8206 14.9419C17.8042 14.976 17.7947 15.013 17.7927 15.0508C17.7908 15.0886 17.7963 15.1264 17.8091 15.162C17.8219 15.1976 17.8416 15.2303 17.8672 15.2582C17.8927 15.2862 17.9236 15.3087 17.9579 15.3246L21.3745 16.9382C21.4128 16.9565 21.4547 16.966 21.4972 16.9658C21.5302 16.9662 21.563 16.9604 21.5939 16.9488C21.6294 16.9361 21.6621 16.9165 21.69 16.8911C21.7179 16.8658 21.7405 16.8351 21.7564 16.8009L22.876 14.4292C22.8922 14.3951 22.9016 14.3582 22.9035 14.3205C22.9054 14.2828 22.8999 14.2451 22.8872 14.2095C22.8745 14.174 22.8549 14.1413 22.8296 14.1133C22.8043 14.0853 22.7736 14.0626 22.7395 14.0465ZM21.3583 16.2947L18.4666 14.9273L19.3408 13.0764L22.2358 14.4438L21.3583 16.2947Z" fill="#FFECEE"/>
<g clip-path="url(#clip0_11_366)">
<path fill-rule="evenodd" clip-rule="evenodd" d="M20.967 23.5746C22.6543 23.8446 24.6116 23.8446 26.7714 23.5746L27.0414 24.992C24.9491 25.8694 22.7893 25.8019 20.6295 24.992L20.967 23.5746ZM25.0166 19.9975C27.1763 20.47 28.8637 22.2248 29.3361 24.3846L40 25.8694V27.1518H36.1529C36.9629 28.5016 35.9505 30.2565 34.3306 30.2565C32.7108 30.2565 31.7659 28.5016 32.5083 27.1518H29.3361C28.6612 29.649 26.3664 31.4713 23.6667 31.4713C20.967 31.4713 18.6722 29.649 17.9973 27.1518H14.9601C15.77 28.5016 14.7576 30.2565 13.1378 30.2565C11.5179 30.2565 10.5056 28.5016 11.3155 27.1518H7.33337V25.5994L17.9973 24.2496C18.5372 22.1573 20.1571 20.47 22.3168 19.9975L22.9243 16.0154H24.4091L25.0166 19.9975Z" fill="#FFECEE"/>
</g>
<path d="M1.11407 40.7368V35.2893L0.429838 35.2103V34.684H1.60531C1.69888 34.684 1.7866 34.6811 1.86848 34.6752C1.95035 34.6694 2.02345 34.6635 2.08778 34.6577C2.47376 34.6343 2.78956 34.6226 3.03518 34.6226C3.77789 34.6226 4.35101 34.7513 4.75453 35.0086C5.15805 35.2659 5.35981 35.649 5.35981 36.1577C5.35981 36.5613 5.25747 36.9063 5.05279 37.1929C4.8481 37.4736 4.54985 37.6578 4.15802 37.7455C4.46213 37.7514 4.73991 37.8274 4.99138 37.9736C5.24285 38.1139 5.43876 38.3069 5.57912 38.5526C5.72532 38.7923 5.79842 39.0643 5.79842 39.3684C5.79842 40.0234 5.5528 40.5234 5.06156 40.8684C4.57032 41.2135 3.85977 41.386 2.92992 41.386C2.79541 41.386 2.63751 41.3831 2.45622 41.3772C2.28077 41.3714 2.14627 41.3655 2.0527 41.3597C1.97667 41.3538 1.88895 41.348 1.78953 41.3421C1.69011 41.3363 1.579 41.3333 1.45619 41.3333H0.412293V40.8772L1.11407 40.7368ZM2.20182 37.5613C2.29539 37.5788 2.45329 37.5876 2.67552 37.5876H3.05273C3.47964 37.5876 3.79836 37.4794 4.0089 37.263C4.22528 37.0408 4.33347 36.7192 4.33347 36.2981C4.33347 35.9238 4.21066 35.6402 3.96503 35.4472C3.72526 35.2542 3.39192 35.1577 2.965 35.1577C2.85389 35.1577 2.71938 35.1606 2.56148 35.1665C2.40358 35.1723 2.28662 35.1899 2.21059 35.2191L2.20182 37.5613ZM2.19305 40.7017C2.26323 40.7427 2.39773 40.7778 2.59657 40.807C2.80126 40.8363 3.00302 40.8509 3.20185 40.8509C3.64631 40.8509 4.00012 40.7368 4.26329 40.5088C4.52646 40.2748 4.65804 39.9386 4.65804 39.5C4.65804 39.0555 4.53523 38.7222 4.28961 38.4999C4.04398 38.2777 3.69017 38.1666 3.22817 38.1666H2.75447C2.49131 38.1666 2.30416 38.1754 2.19305 38.1929V40.7017ZM7.2039 40.7895V35.2016L6.51966 35.0174V34.5524L8.06357 34.3682L8.28288 34.4559L8.2741 36.4209L8.23024 37.0613C8.46417 36.8624 8.73026 36.7104 9.02851 36.6051C9.32677 36.494 9.60748 36.4385 9.87064 36.4385C10.2625 36.4385 10.5607 36.5203 10.7654 36.6841C10.9759 36.8478 11.1192 37.0905 11.1952 37.4122C11.2713 37.7338 11.3064 38.1637 11.3005 38.7017V40.7895L11.9146 40.886V41.3333H9.5373V40.886L10.2215 40.7895V39.0175C10.2215 38.5613 10.204 38.2104 10.1689 37.9648C10.1338 37.7133 10.049 37.5204 9.91451 37.3859C9.78 37.2455 9.57239 37.1753 9.29168 37.1753C8.89401 37.1753 8.55774 37.2747 8.28288 37.4736V40.7895L8.82675 40.886V41.3333H6.5723V40.886L7.2039 40.7895ZM14.7079 36.4385C15.2752 36.4385 15.7138 36.5642 16.0237 36.8157C16.3337 37.0671 16.4887 37.4882 16.4887 38.0789V40.886H17.0325V41.2368C16.9273 41.3012 16.7898 41.3509 16.6202 41.386C16.4506 41.4269 16.284 41.4474 16.1202 41.4474C15.9097 41.4474 15.7576 41.4064 15.6641 41.3246C15.5705 41.2368 15.5208 41.0965 15.5149 40.9035C15.1933 41.2661 14.7401 41.4474 14.1552 41.4474C13.857 41.4474 13.5909 41.3918 13.357 41.2807C13.1231 41.1637 12.9418 41.0029 12.8131 40.7982C12.6844 40.5936 12.6201 40.3626 12.6201 40.1052C12.6201 39.7193 12.7634 39.4005 13.05 39.1491C13.3365 38.8976 13.6932 38.7163 14.1202 38.6052C14.5471 38.4882 14.9769 38.4297 15.4097 38.4297V38.1666C15.4097 37.7689 15.319 37.4911 15.1377 37.3332C14.9564 37.1753 14.6874 37.0964 14.3307 37.0964C14.1377 37.0964 13.9184 37.1285 13.6728 37.1929C13.4272 37.2572 13.2137 37.3391 13.0324 37.4385L12.8306 36.956C13.0295 36.7923 13.3131 36.6665 13.6815 36.5788C14.0558 36.4852 14.3979 36.4385 14.7079 36.4385ZM15.4097 38.9561C14.9711 38.9561 14.5763 39.035 14.2254 39.1929C13.8804 39.3508 13.7079 39.6023 13.7079 39.9473C13.7079 40.5146 14.009 40.7982 14.6114 40.7982C14.7518 40.7982 14.895 40.769 15.0412 40.7105C15.1933 40.652 15.3132 40.5819 15.4009 40.5L15.4097 38.9561ZM18.3154 40.7895V37.5525L17.7101 37.1929V36.8244L19.0084 36.4385L19.254 36.5174V37.2455C19.3476 37.0525 19.5377 36.8712 19.8242 36.7016C20.1166 36.5262 20.3856 36.4385 20.6313 36.4385C20.8535 36.4385 20.9968 36.4502 21.0611 36.4735V37.5262C20.8506 37.4209 20.5991 37.3683 20.3067 37.3683C19.9441 37.3683 19.6429 37.4473 19.4031 37.6052V40.7719L20.5348 40.886V41.3333H17.6838V40.886L18.3154 40.7895ZM23.7542 36.4385C24.3215 36.4385 24.7601 36.5642 25.0701 36.8157C25.38 37.0671 25.535 37.4882 25.535 38.0789V40.886H26.0789V41.2368C25.9736 41.3012 25.8362 41.3509 25.6666 41.386C25.497 41.4269 25.3303 41.4474 25.1666 41.4474C24.956 41.4474 24.804 41.4064 24.7104 41.3246C24.6168 41.2368 24.5671 41.0965 24.5613 40.9035C24.2396 41.2661 23.7864 41.4474 23.2016 41.4474C22.9033 41.4474 22.6372 41.3918 22.4033 41.2807C22.1694 41.1637 21.9881 41.0029 21.8594 40.7982C21.7308 40.5936 21.6664 40.3626 21.6664 40.1052C21.6664 39.7193 21.8097 39.4005 22.0963 39.1491C22.3828 38.8976 22.7396 38.7163 23.1665 38.6052C23.5934 38.4882 24.0232 38.4297 24.456 38.4297V38.1666C24.456 37.7689 24.3654 37.4911 24.1841 37.3332C24.0028 37.1753 23.7338 37.0964 23.377 37.0964C23.184 37.0964 22.9647 37.1285 22.7191 37.1929C22.4735 37.2572 22.26 37.3391 22.0787 37.4385L21.877 36.956C22.0758 36.7923 22.3594 36.6665 22.7279 36.5788C23.1022 36.4852 23.4443 36.4385 23.7542 36.4385ZM24.456 38.9561C24.0174 38.9561 23.6226 39.035 23.2718 39.1929C22.9267 39.3508 22.7542 39.6023 22.7542 39.9473C22.7542 40.5146 23.0554 40.7982 23.6577 40.7982C23.7981 40.7982 23.9414 40.769 24.0876 40.7105C24.2396 40.652 24.3595 40.5819 24.4472 40.5L24.456 38.9561ZM28.2916 36.5437H29.7302V37.1665H28.3179V39.1227C28.3179 39.5731 28.3267 39.9035 28.3442 40.114C28.3676 40.3245 28.4115 40.4824 28.4758 40.5877C28.546 40.6871 28.66 40.7368 28.8179 40.7368C28.9407 40.7368 29.0899 40.7164 29.2653 40.6754C29.4466 40.6345 29.5723 40.5906 29.6425 40.5438L29.8179 40.9649C29.6717 41.1111 29.4524 41.2281 29.16 41.3158C28.8735 41.3977 28.5986 41.4386 28.3354 41.4386C27.9612 41.4386 27.6892 41.3304 27.5196 41.114C27.35 40.8977 27.2652 40.5555 27.2652 40.0877V37.1665H26.6161V36.7893C26.891 36.7192 27.0722 36.6665 27.16 36.6314C27.2535 36.5905 27.3354 36.5145 27.4056 36.4034C27.4933 36.2513 27.6132 35.915 27.7652 35.3946H28.2916V36.5437Z" fill="#FFECEE"/>
<path d="M35.2248 36.2016V36.3507H34.0142V38.0525H32.6019C32.1165 38.0525 31.751 38.152 31.5053 38.3508C31.2597 38.5438 31.1369 38.8099 31.1369 39.1491C31.1369 39.4181 31.2276 39.6432 31.4088 39.8245C31.596 40.0058 31.8153 40.1403 32.0668 40.228C32.3182 40.3099 32.5375 40.3509 32.7247 40.3509C32.8709 40.3509 33.0375 40.3392 33.2247 40.3158L32.8387 39.4122C32.9498 39.2836 33.0785 39.1871 33.2247 39.1227C33.3709 39.0584 33.5142 39.0263 33.6545 39.0263C33.9528 39.0263 34.1809 39.114 34.3388 39.2894C34.5025 39.4649 34.5844 39.6842 34.5844 39.9473C34.5785 40.1345 34.5201 40.3099 34.4089 40.4737C34.2978 40.6374 34.1428 40.7778 33.944 40.8947L34.8826 42.386L34.2598 42.7194L33.5405 41.0614C33.3066 41.1316 33.0346 41.1667 32.7247 41.1667C32.4323 41.1667 32.1282 41.076 31.8124 40.8947C31.4966 40.7134 31.2305 40.4532 31.0141 40.114C30.7977 39.7748 30.6895 39.3771 30.6895 38.921C30.6895 38.3128 30.8328 37.8742 31.1194 37.6052C31.4118 37.3361 31.8387 37.2016 32.4001 37.2016H33.0843V36.3507H30.1281L29.8035 35.7279V35.57H34.9002L35.2248 36.2016ZM40.9892 36.3507V41.7018H40.8225L40.0593 41.2632V36.3507H38.6031C38.8429 36.6256 38.9628 36.9619 38.9628 37.3595C38.9628 37.687 38.8868 38.0233 38.7347 38.3683C38.5885 38.7075 38.3868 39.0146 38.1294 39.2894C37.878 39.5584 37.6002 39.7514 37.2961 39.8684L38.3488 41.4562L37.647 41.8421L36.8838 39.9737C36.8429 39.9795 36.7873 39.9824 36.7171 39.9824C36.5826 39.9824 36.4276 39.9503 36.2522 39.8859C36.0768 39.8158 35.9276 39.7251 35.8048 39.614C35.682 39.5029 35.6206 39.3859 35.6206 39.2631C35.6206 39.1344 35.6557 39.0175 35.7259 38.9122C35.796 38.8011 35.8838 38.7163 35.989 38.6578C36.0943 38.5935 36.1908 38.5613 36.2785 38.5613C36.3545 38.5613 36.4101 38.5701 36.4452 38.5876L36.8487 39.2017C37.1587 39.0613 37.4335 38.8391 37.6733 38.535C37.2347 38.3479 36.8604 38.0847 36.5504 37.7455C36.2405 37.4063 36.0855 37.0437 36.0855 36.6578C36.0855 36.5466 36.1031 36.4443 36.1382 36.3507H35.1995L34.875 35.7279V35.57H41.5506L41.8839 36.2016V36.3507H40.9892ZM38.1821 37.1227C38.1821 36.9239 38.1119 36.7484 37.9715 36.5964C37.837 36.4385 37.6557 36.3595 37.4277 36.3595C37.2815 36.3595 37.1587 36.4092 37.0592 36.5086C36.9598 36.6022 36.9101 36.7396 36.9101 36.9209C36.9101 37.1665 37.0095 37.4063 37.2084 37.6402C37.413 37.8683 37.6499 38.035 37.9189 38.1403C38.0944 37.7894 38.1821 37.4502 38.1821 37.1227ZM40.4443 32.6313C40.7425 32.6313 41.032 32.7073 41.3127 32.8594C41.5876 33.0114 41.8332 33.2191 42.0496 33.4822L41.8127 33.8419C41.6958 33.7483 41.532 33.6577 41.3215 33.5699C41.111 33.4764 40.9092 33.4296 40.7162 33.4296C40.5115 33.4296 40.339 33.4998 40.1987 33.6401C40.0583 33.7746 39.9881 33.9647 39.9881 34.2103C39.9881 34.4559 40.0583 34.7045 40.1987 34.956C40.339 35.2074 40.5057 35.4355 40.6987 35.6402L40.1285 35.8156L40.1022 35.6051C39.7805 35.3653 39.5203 35.0934 39.3214 34.7893C39.1168 34.4852 39.0144 34.1869 39.0144 33.8945C39.0144 33.6314 39.0846 33.4062 39.2249 33.2191C39.3653 33.0261 39.5466 32.8799 39.7688 32.7804C39.9852 32.681 40.2104 32.6313 40.4443 32.6313ZM47.277 36.2104V36.3595H46.3822V41.7105H46.2156L45.4524 41.2719V38.6754L43.5839 38.7982L43.7067 39.6666C43.5781 39.6959 43.4435 39.7105 43.3032 39.7105C43.1511 39.7105 42.9874 39.6754 42.812 39.6052C42.6365 39.5292 42.4845 39.4152 42.3558 39.2631C42.233 39.1111 42.1716 38.9239 42.1716 38.7017C42.1716 38.38 42.271 38.1695 42.4698 38.0701C42.6687 37.9648 42.8997 37.9122 43.1628 37.9122C43.7418 37.9122 44.505 37.956 45.4524 38.0438V36.3507H41.8558L41.5312 35.7279V35.57H46.9349L47.277 36.2104Z" fill="#FFECEE"/>
<defs>
<clipPath id="clip0_11_366">
<rect width="32.6667" height="15.4867" fill="white" transform="translate(7.33337 16)"/>
</clipPath>
</defs>
</svg>
